<svg height="512pt" viewBox="-54 0 512 512" width="512pt" xmlns="http://www.w3.org/2000/svg"><path d="m323.335938 27.667969v-27.667969h-30v27.667969h-76.667969v-27.667969h-30v27.667969h-76.667969v-27.667969h-30v27.667969h-80v484.332031h403.332031v-484.332031zm50 63.996093h-343.335938v-34h343.332031v34zm-343.335938 390.335938v-360.335938h343.332031v360.335938zm0 0"/><path d="m84.335938 297.667969h96v30h-96zm0 0"/><path d="m84.335938 354.667969h96v30h-96zm0 0"/><path d="m84.335938 411.667969h96v30h-96zm0 0"/><path d="m223 297.667969h96v30h-96zm0 0"/><path d="m223 354.667969h96v30h-96zm0 0"/><path d="m223 411.667969h96v30h-96zm0 0"/><path d="m110.941406 248.605469 21.394532-21.390625 21.390624 21.390625 21.214844-21.210938-21.394531-21.394531 21.394531-21.394531-21.214844-21.210938-21.390624 21.390625-21.394532-21.390625-21.214844 21.210938 21.394532 21.394531-21.394532 21.394531zm0 0"/><path d="m318.941406 192.273438-21.214844-21.214844-32.058593 32.0625-14.726563-14.726563-21.214844 21.210938 35.941407 35.941406zm0 0"/></svg>