<?xml version="1.0"?>
<svg xmlns="http://www.w3.org/2000/svg" viewBox="0 0 64 64" width="512" height="512"><g id="workhome-virus-covid19-coronavirus-home"><path d="M49,37a1,1,0,0,0,1-1V35a1,1,0,0,0-2,0v1A1,1,0,0,0,49,37Z"/><path d="M45,37a1,1,0,0,0,1-1V35a1,1,0,0,0-2,0v1A1,1,0,0,0,45,37Z"/><path d="M48.293,39.293a1.831,1.831,0,0,1-2.586,0,1,1,0,0,0-1.414,1.414,3.831,3.831,0,0,0,5.414,0,1,1,0,0,0-1.414-1.414Z"/><path d="M55,47H52a1,1,0,0,1-1-1V44.74A7.01,7.01,0,0,0,54,39a3.009,3.009,0,0,0,3-3V35a2.986,2.986,0,0,0-1-2.22V28a5,5,0,0,0-5-5V21.44l1.57.84a3.466,3.466,0,0,0,3.58.17,3.511,3.511,0,0,0,.2-6.07L30.48,2.12a1.02,1.02,0,0,0-.96,0L3.58,16.42a3.515,3.515,0,0,0,.27,6.03,3.605,3.605,0,0,0,1.68.42,3.239,3.239,0,0,0,1.82-.54L9,21.44V42H7.49a3,3,0,0,0-2.93,3.65l3.12,14A2.976,2.976,0,0,0,10.6,62H61a1,1,0,0,0,1-1V54A7.008,7.008,0,0,0,55,47Zm-3.48,1.95a6.008,6.008,0,0,1-9.04,0A2.99,2.99,0,0,0,45,46v-.29a7.042,7.042,0,0,0,4,0V46A2.99,2.99,0,0,0,51.52,48.95ZM52,39a5,5,0,0,1-10,0l.08-7a5.09,5.09,0,0,0,2.27-.54l.65-.34.58.31A5.1,5.1,0,0,0,47.9,32H52Zm3-4v1a1,1,0,0,1-1,1V34A1,1,0,0,1,55,35Zm-1-7v4a2.006,2.006,0,0,0-2-2H47.9a3.068,3.068,0,0,1-1.39-.34l-1.04-.55a1,1,0,0,0-.92,0l-1.11.56A3.029,3.029,0,0,1,42,30a2.006,2.006,0,0,0-2,2V28a2.006,2.006,0,0,1,2-2h1a1,1,0,0,1,1,1,1,1,0,0,0,2,0V26a1,1,0,0,1,1-1h4A3.009,3.009,0,0,1,54,28ZM6.33,20.62A1.5,1.5,0,0,1,4,19.36a1.481,1.481,0,0,1,.61-1.22L30,4.14,55.32,18.1a1.511,1.511,0,0,1-.11,2.59,1.566,1.566,0,0,1-1.62-.12L30.47,8.12a.98.98,0,0,0-.94,0ZM10.6,60a.985.985,0,0,1-.97-.78l-3.11-14a1,1,0,0,1,.19-.85A1.022,1.022,0,0,1,7.49,44H29.4a.985.985,0,0,1,.97.78L33.75,60ZM33.51,49.7l-1.19-5.35A2.976,2.976,0,0,0,29.4,42H11V20.85a1.043,1.043,0,0,0-.1-.43L30,10.14,49,20.36V23H47a3,3,0,0,0-2.53,1.39A2.934,2.934,0,0,0,43,24H42a4,4,0,0,0-4,4v4.78A2.986,2.986,0,0,0,37,35v1a3.009,3.009,0,0,0,3,3,7.01,7.01,0,0,0,3,5.74V46a1,1,0,0,1-1,1H39A7.041,7.041,0,0,0,33.51,49.7ZM40,34v3a1,1,0,0,1-1-1V35A1,1,0,0,1,40,34Zm4,26H35.8l-.44-2H46A2.006,2.006,0,0,1,44,60Zm16,0H56V55a1,1,0,0,0-2,0v5H47.44A3.906,3.906,0,0,0,48,58V57a1,1,0,0,0-1-1H34.91l-.73-3.29A5.02,5.02,0,0,1,39,49h1.1a7.951,7.951,0,0,0,13.8,0H55a5,5,0,0,1,5,5Z"/><path d="M20,55a3,3,0,1,1,3-3A3,3,0,0,1,20,55Zm0-4a1,1,0,1,0,1,1A1,1,0,0,0,20,51Z"/><path d="M16,36h5.647l4.7,3.779A1,1,0,0,0,26.97,40a1,1,0,0,0,1-.992L27.992,36H32a3,3,0,0,0,3-3V23a3,3,0,0,0-3-3H16a3,3,0,0,0-3,3V33A3,3,0,0,0,16,36ZM15,23a1,1,0,0,1,1-1H32a1,1,0,0,1,1,1V33a1,1,0,0,1-1,1H27a1,1,0,0,0-1,.992l-.015,1.932-3.358-2.7A1,1,0,0,0,22,34H16a1,1,0,0,1-1-1Z"/><path d="M18,26h1a1,1,0,0,0,0-2H18a1,1,0,0,0,0,2Z"/><path d="M22,26h8a1,1,0,0,0,0-2H22a1,1,0,0,0,0,2Z"/><path d="M22,29h8a1,1,0,0,0,0-2H22a1,1,0,0,0,0,2Z"/><path d="M18,29h1a1,1,0,0,0,0-2H18a1,1,0,0,0,0,2Z"/><path d="M18,32h1a1,1,0,0,0,0-2H18a1,1,0,0,0,0,2Z"/><path d="M22,32h8a1,1,0,0,0,0-2H22a1,1,0,0,0,0,2Z"/></g></svg>
