<?xml version="1.0"?>
<svg xmlns="http://www.w3.org/2000/svg" viewBox="0 0 64 64" width="512" height="512"><g id="Outline"><path d="M22,28a4,4,0,0,0,4-4c0-1.941-2.712-5.062-3.256-5.668a1.031,1.031,0,0,0-1.488,0C20.712,18.938,18,22.059,18,24A4,4,0,0,0,22,28Zm0-7.451c1.063,1.332,2,2.831,2,3.451a2,2,0,0,1-4,0C20,23.363,20.939,21.875,22,20.549Z"/><path d="M61,20H58V17a1,1,0,0,0-1-1H55V10h2a1,1,0,0,0,1-1V5a3,3,0,0,0-3-3H49a3,3,0,0,0-3,3H26a5.006,5.006,0,0,0-5,5v5a1,1,0,0,0,2,0V10a3,3,0,0,1,3-3H46V9a1,1,0,0,0,1,1h2v6H47a1,1,0,0,0-1,1v3H43a1,1,0,0,0-1,1V61a1,1,0,0,0,1,1H61a1,1,0,0,0,1-1V21A1,1,0,0,0,61,20ZM48,5a1,1,0,0,1,1-1h6a1,1,0,0,1,1,1V8H48Zm3,5h2v6H51Zm-3,8h8v2H48ZM60,60H44V52H60Zm0-10H44V32H60Zm0-20H44V22H60Z"/><path d="M35.41,31.623,30.6,32.9a4.316,4.316,0,0,0-4.95-2.207L19.3,32.385a1.882,1.882,0,0,1-1.688-.372l-3.469-2.891A9.615,9.615,0,0,0,4.26,27.631l-1.645.687A1,1,0,0,0,2,29.245l.036,10.166a1,1,0,0,0,1,1h3.3a4.734,4.734,0,0,1,1.6.28l8.646,2.852a8.093,8.093,0,0,0,5.693-.1L38.461,37.03a2.446,2.446,0,0,0,1.366-3.174A3.729,3.729,0,0,0,35.41,31.623Zm2.553,3.313a.434.434,0,0,1-.238.234L21.54,41.579a6.1,6.1,0,0,1-4.308.068L8.585,38.8a6.692,6.692,0,0,0-2.247-.388h-2.3L4,29.906l1.028-.429a7.616,7.616,0,0,1,7.835,1.181l3.469,2.891a3.886,3.886,0,0,0,3.484.768l6.351-1.693a2.311,2.311,0,0,1,2.787,1.5.441.441,0,0,1-.278.557l-8.889,2.963A6.17,6.17,0,0,1,15.24,37.4L8.469,34.184a1,1,0,1,0-.858,1.806l6.781,3.218a8.169,8.169,0,0,0,6.029.334l8.89-2.962A2.442,2.442,0,0,0,30.9,34.89l5.027-1.334A1.729,1.729,0,0,1,37.969,34.6.451.451,0,0,1,37.963,34.936Z"/><path d="M54,47H50a1,1,0,0,1-1-1V44H47a1,1,0,0,1-1-1V39a1,1,0,0,1,1-1h2V36a1,1,0,0,1,1-1h4a1,1,0,0,1,1,1v2h2a1,1,0,0,1,1,1v4a1,1,0,0,1-1,1H55v2A1,1,0,0,1,54,47Zm-3-2h2V43a1,1,0,0,1,1-1h2V40H54a1,1,0,0,1-1-1V37H51v2a1,1,0,0,1-1,1H48v2h2a1,1,0,0,1,1,1Z"/></g></svg>
