<svg height="480pt" viewBox="0 -88 480.05068 480" width="480pt" xmlns="http://www.w3.org/2000/svg"><path d="m472 224.023438h-27.3125c22.71875-13.144532 36.304688-37.769532 35.3125-64 0-35.15625-25.664062-85.117188-53.601562-106.535157l22.3125-41.6875c1.324218-2.472656 1.257812-5.460937-.179688-7.875-1.4375-2.410156-4.035156-3.8906248-6.84375-3.9023435h-131.375c-2.761719 0-5.324219 1.4179685-6.789062 3.7578125-1.464844 2.339844-1.621094 5.265625-.410157 7.75l20.414063 41.8125c-27.246094 20.976562-51.527344 70.195312-51.527344 106.679688-.992188 26.230468 12.59375 50.855468 35.3125 64h-115.3125v-124.6875l18.34375 18.34375 11.3125-11.308594-104-104c-3.125-3.125-8.1875-3.125-11.3125 0l-104 104 11.3125 11.308594 18.34375-18.34375v124.6875h-24c-4.417969 0-8 3.582031-8 8v32c0 4.421874 3.582031 8 8 8h196.6875l-18.34375 18.347656c-2.285156 2.285156-2.972656 5.726562-1.734375 8.714844 1.238281 2.988281 4.15625 4.9375 7.390625 4.9375h96c3.234375 0 6.152344-1.949219 7.390625-4.9375 1.238281-2.988282.550781-6.429688-1.734375-8.714844l-18.34375-18.347656h196.6875c4.417969 0 8-3.578126 8-8v-32c0-4.417969-3.582031-8-8-8zm-148.871094-208h105.207032l-17.136719 32h-72.445313zm-35.128906 144c0-32.527344 24.054688-80 48.207031-96h77.394531c25.222657 16.570312 50.398438 64.097656 50.398438 96 0 55.691406-55.136719 64-88 64s-88-8.308594-88-64zm-240-76.6875 64-64 64 64v140.6875h-32v-56c0-4.417969-3.582031-8-8-8h-48c-4.417969 0-8 3.582031-8 8v56h-32zm80 140.6875h-32v-48h32zm83.3125 64 28.6875-28.6875 28.6875 28.6875zm252.6875-32h-204.6875l-13.65625-13.652344c-3.125-3.125-8.1875-3.125-11.3125 0l-13.65625 13.652344h-204.6875v-16h448zm0 0"/><path d="m80 136.023438h64c4.417969 0 8-3.578126 8-8v-48c0-4.417969-3.582031-8-8-8h-64c-4.417969 0-8 3.582031-8 8v48c0 4.421874 3.582031 8 8 8zm56-16h-16v-32h16zm-48-32h16v32h-16zm0 0"/><path d="m376 120.023438c4.417969 0 8 3.582031 8 8h16c-.042969-10.132813-6.445312-19.148438-16-22.527344v-9.472656h-16v9.472656c-11.011719 3.878906-17.621094 15.136718-15.644531 26.644531 1.980469 11.503906 11.96875 19.90625 23.644531 19.882813 4.417969 0 8 3.582031 8 8 0 4.421874-3.582031 8-8 8s-8-3.578126-8-8h-16c.042969 10.136718 6.445312 19.152343 16 22.53125v9.46875h16v-9.46875c11.011719-3.878907 17.621094-15.136719 15.644531-26.644532-1.980469-11.503906-11.96875-19.90625-23.644531-19.886718-4.417969 0-8-3.578126-8-8 0-4.417969 3.582031-8 8-8zm0 0"/></svg>