<svg id="Layer_1" enable-background="new 0 0 256 256" height="512" viewBox="0 0 256 256" width="512" xmlns="http://www.w3.org/2000/svg"><g><g><g><path d="m227.898 68.045h-81.705c-13.478 0-23.3 0-36.386 0h-81.705c-2.353 0-4.198 2.022-3.983 4.365l.299 3.263c.448 4.896 4.409 8.723 9.304 9.018l64.959 3.911c0 4.557-.281-2.219 2.231 47.242l-2.537 100.461-14.265 10.599c-.859.638-1.365 1.645-1.365 2.715 0 1.868 1.514 3.382 3.382 3.382h25.418c3.208 0 5.808-2.6 5.808-5.808v-9.402l9.504-73.274c.147-1.136 1.792-1.136 1.939 0l9.532 73.487v9.19c0 3.208 2.6 5.808 5.808 5.808h25.418c1.868 0 3.382-1.514 3.382-3.382 0-1.07-.506-2.076-1.365-2.715l-14.265-10.599-.028.002-2.537-100.463c2.508-49.388 2.231-42.692 2.231-47.221l65.309-3.932c4.889-.295 8.855-4.115 9.304-9.018l.299-3.263c.212-2.344-1.633-4.366-3.986-4.366z" fill="#f9cfcf"/></g></g><g><g><path d="m155.039 147.736h-54.428l-2.185 86.523h19.384l9.046-69.744c.147-1.136 1.792-1.136 1.939 0l9.046 69.744h19.384z" fill="#4671c6"/></g></g><g><g><path d="m190.815 68.045h-44.622c-13.478 0-23.3 0-36.386 0h-42.697v18.656l31.57 1.901c0 4.557-.281-2.219 2.231 47.242l-.339 13.406h54.505l-.339-13.406c2.508-49.388 2.231-42.692 2.231-47.221l33.845-2.037v-18.541z" fill="#e0ebfc"/></g></g><g><g><path d="m128.175 81.173c-6.423 0-11.629-5.207-11.629-11.629v-21.543h23.258v21.543c0 6.423-5.206 11.629-11.629 11.629z" fill="#f9cfcf"/></g></g><g><g><path d="m155.039 147.736h-54.428l-2.185 86.523h19.384l9.046-69.744c.147-1.136 1.792-1.136 1.939 0l9.046 69.744h19.384z" fill="#4671c6"/></g></g><g><g><path d="m169.552 255h-25.417c-4.305 0-7.808-3.503-7.808-7.809v-9.061l-8.501-65.542-8.474 65.329v9.273c0 4.306-3.503 7.809-7.809 7.809h-25.418c-2.967 0-5.381-2.414-5.381-5.382 0-1.695.812-3.31 2.172-4.32l13.484-10.018 2.51-99.411-1.282-25.149c-.838-16.385-.952-18.615-.957-20.236l-63.07-3.797c-5.776-.348-10.626-4.842-11.175-10.832l-.299-3.263c-.153-1.676.409-3.35 1.543-4.592 1.134-1.243 2.75-1.956 4.432-1.956h86.444v-18.042c0-1.104.896-2 2-2h23.258c1.104 0 2 .896 2 2v18.043h86.094c1.683 0 3.298.713 4.432 1.956s1.696 2.917 1.543 4.592l-.299 3.263c-.549 6.001-5.413 10.484-11.175 10.832l-63.42 3.818c-.005 1.622-.121 3.885-.956 20.202l-1.283 25.163 2.51 99.39 13.512 10.039c1.36 1.011 2.172 2.625 2.172 4.32 0 2.967-2.414 5.381-5.382 5.381zm-41.728-93.337c1.516 0 2.758 1.091 2.954 2.595l9.532 73.486c.011.085.017.171.017.257v9.19c0 2.1 1.708 3.809 3.808 3.809h25.417c.762 0 1.382-.62 1.382-1.382 0-.436-.208-.85-.558-1.109l-14.13-10.499c-.107-.065-.208-.14-.302-.225-.404-.367-.654-.883-.668-1.429l-2.537-100.463c-.001-.05 0-.101.002-.152l1.287-25.24c.963-18.825.963-18.825.947-20.753l-.005-1.126c0-1.058.824-1.933 1.88-1.997l65.309-3.932c3.825-.23 7.066-3.205 7.432-7.203l.299-3.264c.052-.567-.131-1.11-.514-1.531-.384-.42-.908-.652-1.478-.652h-88.094c-1.104 0-2-.896-2-2v-18.042h-19.258v18.043c0 1.104-.896 2-2 2h-88.444c-.569 0-1.094.231-1.478.652-.383.42-.566.964-.514 1.531l.299 3.263c.366 3.999 3.606 6.973 7.432 7.204l64.959 3.911c1.056.064 1.88.938 1.88 1.997-.017 3.304-.119 1.165.942 21.915l1.287 25.226c.002.051.003.102.002.152l-2.537 100.461c-.016.615-.313 1.188-.807 1.555l-14.266 10.599c-.349.259-.558.674-.558 1.109 0 .762.62 1.382 1.381 1.382h25.418c2.1 0 3.809-1.708 3.809-3.809v-9.402c0-.086.005-.172.017-.257l9.504-73.274c.194-1.504 1.436-2.596 2.952-2.596z" fill="#3762cc"/></g></g><g><g><path d="m128.173 58.813c-14.492 0-26.239-11.748-26.239-26.239v-10.99c0-3.643 2.953-6.596 6.596-6.596h45.883v17.586c0 14.491-11.748 26.239-26.24 26.239z" fill="#4671c6"/></g></g><g><g><path d="m128.173 60.813c-15.571 0-28.239-12.668-28.239-28.24v-10.99c0-4.74 3.856-8.596 8.595-8.596h45.883c1.104 0 2 .896 2 2v17.586c.001 15.572-12.667 28.24-28.239 28.24zm-19.644-43.826c-2.534 0-4.595 2.062-4.595 4.596v10.99c0 13.366 10.874 24.24 24.239 24.24s24.239-10.874 24.239-24.24v-15.586z" fill="#3762cc"/></g></g><g><g><path d="m150.522 34.347v-2.093c0-12.231-10.006-22.147-22.348-22.147-12.343 0-22.348 9.915-22.348 22.147v2.093c-3.881-.079-6.959 3.013-6.959 6.75 0 3.99 3.484 7.146 7.55 6.717 2.306 9.798 11.17 17.099 21.758 17.099 10.589 0 19.452-7.301 21.758-17.099 4.061.429 7.55-2.721 7.55-6.717-.002-3.739-3.083-6.829-6.961-6.75z" fill="#f9cfcf"/></g></g><g><g><path d="m123.328 54.738c-.382 0-.764-.145-1.056-.435-.588-.583-.592-1.533-.009-2.121 1.304-1.315 3.299-2.254 5.75-2.285 2.675-.019 4.708.915 6.066 2.285.583.588.58 1.538-.009 2.121-.588.583-1.538.58-2.121-.009-1.007-1.014-2.417-1.411-3.898-1.397-1.594.019-2.861.595-3.658 1.397-.293.296-.68.444-1.065.444z" fill="#3762cc"/></g></g><g><g><path d="m139.776 45.492c-1.56 0-2.825-1.265-2.825-2.825v-3.013c0-1.56 1.265-2.825 2.825-2.825 1.56 0 2.825 1.265 2.825 2.825v3.013c-.001 1.561-1.265 2.825-2.825 2.825z" fill="#3762cc"/></g></g><g><g><path d="m116.565 45.699c-1.56 0-2.825-1.265-2.825-2.825v-3.013c0-1.56 1.265-2.825 2.825-2.825 1.56 0 2.825 1.265 2.825 2.825v3.013c0 1.56-1.265 2.825-2.825 2.825z" fill="#3762cc"/></g></g><g><g><path d="m128.173 66.912c-10.833 0-20.19-6.954-23.288-17.096-1.892-.172-3.696-.946-5.122-2.229-1.842-1.657-2.898-4.023-2.898-6.49 0-2.361.933-4.576 2.625-6.235 1.211-1.188 2.707-1.982 4.334-2.325 0-14.112 11.333-24.43 24.348-24.43 13.002 0 24.348 10.306 24.348 24.43 1.627.343 3.122 1.137 4.334 2.325 1.693 1.659 2.625 3.874 2.625 6.235 0 2.467-1.056 4.832-2.897 6.489-1.426 1.283-3.23 2.058-5.123 2.229-3.096 10.143-12.454 17.097-23.286 17.097zm-19.811-19.557c2.156 9.159 10.302 15.556 19.811 15.556 9.508 0 17.655-6.397 19.811-15.556.231-.98 1.151-1.638 2.157-1.531 1.395.146 2.734-.283 3.767-1.212 1.014-.913 1.573-2.161 1.573-3.516 0-1.278-.506-2.477-1.425-3.378-.93-.911-2.166-1.381-3.494-1.372-.541.016-1.056-.195-1.44-.571s-.6-.891-.6-1.429v-2.093c0-11.109-9.128-20.147-20.348-20.147s-20.348 9.038-20.348 20.147v2.093c0 .538-.216 1.052-.6 1.428s-.903.585-1.44.571c-1.328-.024-2.563.461-3.494 1.372-.919.9-1.425 2.1-1.425 3.378 0 1.354.559 2.603 1.574 3.517 1.032.929 2.369 1.357 3.766 1.211.989-.108 1.923.545 2.155 1.532z" fill="#3762cc"/></g></g><g><g><path d="m154.413 30.051h-35.062c-7.47 0-13.526-6.056-13.526-13.526 0-7.47 6.056-13.526 13.526-13.526h22.95c6.689 0 12.112 5.423 12.112 12.112z" fill="#4671c6"/></g></g><g><g><path d="m154.413 32.051h-35.062c-8.561 0-15.526-6.965-15.526-15.525 0-8.561 6.965-15.526 15.526-15.526h22.95c7.781 0 14.112 6.331 14.112 14.112v14.939c0 1.105-.896 2-2 2zm-35.062-27.051c-6.355 0-11.526 5.17-11.526 11.526 0 6.355 5.17 11.525 11.526 11.525h33.062v-12.939c0-5.576-4.537-10.112-10.112-10.112z" fill="#3762cc"/></g></g><g><g><path d="m142.601 32.076c-8.574 0-15.55-6.976-15.55-15.55s6.976-15.55 15.55-15.55 15.55 6.976 15.55 15.55-6.976 15.55-15.55 15.55zm0-26.1c-5.817 0-10.55 4.733-10.55 10.55s4.732 10.55 10.55 10.55 10.55-4.732 10.55-10.55-4.733-10.55-10.55-10.55z" fill="#f9a7a7"/></g></g><g><g><circle cx="142.6" cy="16.526" fill="#f9a7a7" r="5.85"/></g></g><g><g><path d="m102.325 152.717c-8.574 0-15.55-6.976-15.55-15.55s6.976-15.55 15.55-15.55 15.55 6.976 15.55 15.55-6.976 15.55-15.55 15.55zm0-26.1c-5.817 0-10.55 4.732-10.55 10.55s4.732 10.55 10.55 10.55 10.55-4.733 10.55-10.55-4.732-10.55-10.55-10.55z" fill="#f9a7a7"/></g></g><g><g><circle cx="102.325" cy="137.167" fill="#f9a7a7" r="5.85"/></g></g><g><g><path d="m128.173 96.632c-8.574 0-15.55-6.976-15.55-15.55s6.976-15.55 15.55-15.55 15.55 6.976 15.55 15.55-6.975 15.55-15.55 15.55zm0-26.1c-5.817 0-10.55 4.732-10.55 10.55s4.732 10.55 10.55 10.55c5.817 0 10.55-4.732 10.55-10.55s-4.732-10.55-10.55-10.55z" fill="#f9a7a7"/></g></g><g><g><circle cx="128.173" cy="81.082" fill="#f9a7a7" r="5.85"/></g></g><g><g><path d="m155.101 206.548c-8.574 0-15.55-6.976-15.55-15.55s6.976-15.55 15.55-15.55 15.55 6.976 15.55 15.55-6.976 15.55-15.55 15.55zm0-26.1c-5.817 0-10.55 4.732-10.55 10.55s4.733 10.55 10.55 10.55 10.55-4.733 10.55-10.55-4.733-10.55-10.55-10.55z" fill="#f9a7a7"/></g></g><g><g><circle cx="155.1" cy="190.998" fill="#f9a7a7" r="5.85"/></g></g></g></svg>