<?xml version="1.0"?>
<svg xmlns="http://www.w3.org/2000/svg" viewBox="0 0 64 64" width="512" height="512"><g id="people-coronavirus-tempurature-thermometer-covid19"><path d="M34.294,32.708a1,1,0,1,0,1.412-1.416l-.171-.17a5,5,0,0,0-7.069,0l-.172.171a1,1,0,1,0,1.412,1.416l.173-.172a3.069,3.069,0,0,1,4.243,0Z"/><path d="M30.212,27.615A1,1,0,0,0,31,28h2a1,1,0,0,0,0-2h-.719l.689-2.757a1,1,0,0,0-1.94-.486l-1,4A1,1,0,0,0,30.212,27.615Z"/><path d="M62,46a7.932,7.932,0,0,0-4-6.93V6a4,4,0,0,0-8,0V39.07a7.858,7.858,0,0,0-1.75,1.37,11.88,11.88,0,0,0-3.2-.44H39a1,1,0,0,1-1-1V36.38A12.1,12.1,0,0,0,43.61,29H45a3.009,3.009,0,0,0,3-3V23a2.986,2.986,0,0,0-1-2.22V11a9.014,9.014,0,0,0-9-9H30a4.989,4.989,0,0,0-4.33,2.51A2.994,2.994,0,0,0,24,4H22a5,5,0,0,0-5,5V20.78A2.986,2.986,0,0,0,16,23v3a3.009,3.009,0,0,0,3,3h1.39A12.1,12.1,0,0,0,26,36.38V39a1,1,0,0,1-1,1H18.95A11.97,11.97,0,0,0,7.01,50.81L6,60.9a1.036,1.036,0,0,0,.26.77A1,1,0,0,0,7,62H57a1,1,0,0,0,1-1.09l-.67-7.65A8,8,0,0,0,62,46ZM46,23v3a1,1,0,0,1-1,1H43.95c.03-.33.05-.66.05-1V22h1A1,1,0,0,1,46,23ZM19,27a1,1,0,0,1-1-1V23a1,1,0,0,1,1-1h1v4c0,.34.02.67.05,1Zm1-10v3H19V9a3.009,3.009,0,0,1,3-3h2a1,1,0,0,1,1,1,1,1,0,0,0,2,0,3.009,3.009,0,0,1,3-3h8a7.008,7.008,0,0,1,7,7v9H44V17a5,5,0,0,0-5-5H37.36a20.818,20.818,0,0,0-1.54-2.57,1.033,1.033,0,0,0-1.64,0A20.818,20.818,0,0,0,32.64,12H25A5,5,0,0,0,20,17Zm16-3a1,1,0,0,1-2,0,7.475,7.475,0,0,1,1-2.15A7.357,7.357,0,0,1,36,14ZM22,26V17a3.009,3.009,0,0,1,3-3h7a3,3,0,0,0,6,0h1a3.009,3.009,0,0,1,3,3v9a10,10,0,0,1-20,0ZM37.73,41.71a5.972,5.972,0,0,1-11.46,0A3,3,0,0,0,28,39V37.3a11.779,11.779,0,0,0,8,0V39A3,3,0,0,0,37.73,41.71ZM46,60V54a1,1,0,0,0-2,0v6H20V54a1,1,0,0,0-2,0v6H8.11L9,51.01A9.972,9.972,0,0,1,18.95,42h5.32a7.979,7.979,0,0,0,15.46,0h5.32a10.057,10.057,0,0,1,1.91.19A8.008,8.008,0,0,0,54,54a7.871,7.871,0,0,0,1.38-.13L55.91,60Zm8-8a6,6,0,0,1-6-6,5.938,5.938,0,0,1,3.43-5.42.982.982,0,0,0,.57-.9V6a2.006,2.006,0,0,1,2-2,2.015,2.015,0,0,1,2,2V8H54v2h2v2H54v2h2v2H53V43.18a3,3,0,1,0,2,0V38h1v1.68a.982.982,0,0,0,.57.9A5.938,5.938,0,0,1,60,46,6,6,0,0,1,54,52Zm1-20V30h1v2Zm1,2v2H55V34Zm-1-6V26h1v2Zm0-4V22h1v2Zm0-4V18h1v2Zm0,26a1,1,0,1,1-1-1A1,1,0,0,1,55,46Z"/><path d="M30.71,19.71l-.24.24A7.523,7.523,0,0,1,29,21.07V22a1,1,0,0,1-2,0v-.16a7.312,7.312,0,0,1-1.49.16H25a1,1,0,0,1,0-2h.51a4.976,4.976,0,0,0,3.54-1.46l.24-.25a1,1,0,0,1,1.42,1.42Z"/><path d="M40,21a1,1,0,0,1-1,1h-.51A7.312,7.312,0,0,1,37,21.84V22a1,1,0,0,1-2,0v-.93a7.176,7.176,0,0,1-1.46-1.12l-.25-.24a1,1,0,0,1,1.42-1.42l.24.25A4.976,4.976,0,0,0,38.49,20H39A1,1,0,0,1,40,21Z"/><path d="M13,22a3,3,0,0,0,3-3c0-1.278-1.522-3.621-2.177-4.568a1.038,1.038,0,0,0-1.646,0C11.522,15.379,10,17.722,10,19A3,3,0,0,0,13,22Zm0-5.146A7.462,7.462,0,0,1,14,19a1,1,0,0,1-2,0A7.457,7.457,0,0,1,13,16.854Z"/><path d="M14,39a4,4,0,0,0,4-4c0-1.941-2.712-5.062-3.256-5.668a1.031,1.031,0,0,0-1.488,0C12.712,29.938,10,33.059,10,35A4,4,0,0,0,14,39Zm0-7.451c1.062,1.332,2,2.831,2,3.451a2,2,0,0,1-4,0C12,34.363,12.939,32.875,14,31.549Z"/></g></svg>
